<svg xmlns="http://www.w3.org/2000/svg" width="32" height="32" fill="none" viewBox="0 0 311 320">
  <path fill="#0066da" d="M76.37.51V76.98H0V20.77Q.85 14.81 3.53 10.76 10.14.74 22.75.67 49.41.53 76.37.51Z"/>
  <path fill="#fbbc04" d="M76.37.51h157.42a1.61 1.57-26.7 0 1 .92.29l.37.27-.27.13q-.17.09-.17.28V77.01h-.05H76.41l-.03-.03V.51Z"/>
  <path fill="#ea4335" d="M235.08 1.09l75.45 75.68H234.62V1.5q0-.19.19-.28.11-.07.27-.13Z"/>
  <path fill="#2684fc" d="M0 76.96h76.38l.03.03v105.7H0V76.96Z"/>
  <path fill="#00ac47" d="M310.53 76.77l.47.34v161.9q-2.66 14.53-15.06 18.77-4.42 1.52-13.03 1.5-55.89-.09-112.92-.17-8.28-.01-16.8.12-.47.01-.8.34l-55.99 56.02c-2.87 2.89-6.12 4.5-10.24 3.89q-5.76-.85-8.49-5.94-1.15-2.16-1.17-7.88-.07-23.19-.05-46.38v-38.28l37.78-37.78a1.79 1.77 22.3 0 1 1.26-.52h118.3a.83.83 0 0 0 .83-.83V77.01h.05l75.91-.24Z"/>
  <path fill="#00832d" d="M76.43 182.69v76.44q-23.97.14-47.52.09-9.82-.02-14.15-1.54Q2.62 253.44 0 238.88v-56.21l76.43.02Z"/>
</svg>
